<svg width="172" height="20" viewBox="0 0 172 20" fill="none" xmlns="http://www.w3.org/2000/svg">
<path d="M94.6729 0.000976562C97.9978 0.00116993 100.859 2.12515 102.278 5.48047L108.275 19.6553H99.5234L95.6572 10.0107C95.1598 8.76312 93.615 8.78576 93.1416 10.0439L89.5088 19.6611H81.4883L86.959 5.73926C88.3297 2.24324 91.3477 0.000976562 94.6729 0.000976562ZM47.5693 5.20508H35.3799V7.13281H47.3887V12.2598H35.3799V14.4014H47.6865V19.6562H27.7744V5.3457C27.7744 2.39507 29.8515 0.000976562 32.4111 0.000976562H47.5693V5.20508ZM13.1191 9.64551C13.6166 10.8931 15.1615 10.8706 15.6348 9.6123L19.2666 0.000976562H27.2871L21.8174 13.9229C20.4473 17.4133 17.4287 19.6553 14.1084 19.6553C10.7881 19.6552 7.92082 17.5313 6.50195 14.1758H6.49707L0.5 0.000976562H9.25195L13.1191 9.64551ZM64.9502 9.74609L69.626 0.000976562H74.8633C77.428 0.00110627 79.5049 2.39515 79.5049 5.3457V19.6494H71.8311V8.79688L66.6279 19.6553H62.8496L57.6719 8.79688V19.6553H50.0654V5.3457C50.0606 2.39509 52.1377 0.00101336 54.6973 0.000976562H60.3916L64.9502 9.74609Z" fill="url(#paint0_linear_2968_167)"/>
<path fill-rule="evenodd" clip-rule="evenodd" d="M111.487 0.00717299H108.179L106.018 5.61501L108.482 11.8006H116.775L116.773 11.806H121.415C121.448 11.806 121.586 11.811 121.726 11.8211C121.795 11.8261 122.021 11.8634 122.021 11.8634C122.856 12.013 123.27 12.7719 123.249 13.6254C123.229 14.4708 122.772 15.2358 121.9 15.2838C121.884 15.2845 121.868 15.2863 121.854 15.2892H109.797L111.57 19.6493H122.215C124.932 19.4101 127.083 16.7719 127.083 13.5802C127.083 12.6169 126.887 11.7056 126.54 10.8954C128.008 9.86034 128.99 7.99536 128.99 5.86786C128.99 2.97822 127.149 0.553754 124.767 0.0534387C124.598 0.0179325 124.424 0.00717298 124.252 0.00645568L111.487 0.00717299ZM110.442 7.49469H122.971C123.131 7.48895 123.314 7.47783 123.502 7.45524C123.752 7.42511 123.996 7.37634 124.202 7.30317C124.309 7.26551 124.405 7.22104 124.487 7.1694C124.896 6.91404 125.169 6.43022 125.169 5.86786C125.169 5.25887 124.853 4.7356 124.394 4.50392C124.203 4.4078 124.067 4.35759 123.925 4.32746C123.779 4.29662 123.615 4.28442 123.362 4.27904L111.874 4.26828L110.442 7.49505V7.49469ZM171.5 0.000358657H135.65L133.748 4.30056H158.101L151.44 19.6357L156.59 19.6038L163.237 4.3002H169.597L171.5 0L171.5 0.000358657ZM150.856 7.52733H132.507L130.605 11.8329H148.954L150.856 7.52733ZM147.459 15.3326H129.11L127.207 19.6328H145.556L147.459 15.3326Z" fill="white"/>
<defs>
<linearGradient id="paint0_linear_2968_167" x1="5.34407" y1="-5.59313" x2="94.9909" y2="-47.956" gradientUnits="userSpaceOnUse">
<stop stop-color="#00FF86"/>
<stop offset="1" stop-color="#59EFD9"/>
</linearGradient>
</defs>
</svg>
